<svg class="gridItem__media" version="1.1" id="Layer_1" xmlns="http://www.w3.org/2000/svg" xmlns:xlink="http://www.w3.org/1999/xlink" x="0px" y="0px" width="1600" height="1200" viewBox="0 0 1600 1200" style="enable-background:new 0 0 1600 1200;" xml:space="preserve" fill="none">
<path d="M1330.36 1064.38L1414.13 727.62C1416.56 717.86 1416.28 707.62 1413.31 698L1271.88 239.24C1265.21 217.59 1245.99 202.209 1223.41 200.429L503.41 143.799C486.51 142.469 469.93 148.969 458.44 161.439L198.86 443.159C188.1 454.839 182.88 470.589 184.54 486.379L245.29 1064.38H1330.36Z" fill="#F4F4F4"/>
<path d="M951.65 448.801H895.5V1063.51H951.65V448.801Z" fill="#DADDDF"/>
<path d="M1021.19 886.6H925.87V993.12H1021.19V886.6Z" fill="#B2B6BB"/>
<path d="M1003.22 886.6H1043.05V896.89H1041.57V993.12H1006.18V896.89H1003.22V886.6V886.6Z" fill="#858990"/>
<path d="M1002.75 886.6H923.57V896.89H1002.75V886.6Z" fill="#B2B6BB"/>
<path d="M925.87 898.211H1010.53L1019.06 896.891H925.87V898.211V898.211Z" fill="#858990"/>
<path d="M1218.7 541.641H1090.14V648.161H1218.7V541.641Z" fill="#DADDDF"/>
<path d="M1191.48 541.641H1220.95V551.931H1218.7V648.161H1195.96V551.931H1191.48V541.641Z" fill="#B2B6BB"/>
<path d="M1194.41 541.641H1086.75V551.931H1194.41V541.641Z" fill="#B2B6BB"/>
<path d="M1204 551.93H1090.14V553.25H1204V551.93Z" fill="#B2B6BB"/>
<path d="M1246.49 448.801H889.18V461.561H1233.85V648.481H889.18V662.481H1233.85V1063.51H1246.49V448.801Z" fill="white"/>
<path d="M1302.64 448.801H1246.49V1063.51H1302.64V448.801Z" fill="#DADDDF"/>
<path d="M895.5 1063.5V448.789H882.86V1063.5H895.5Z" fill="white"/>
<path d="M1238.86 993.119H891.59V1007.12H1238.86V993.119V993.119Z" fill="white"/>
<path d="M1218.56 821.391H1036.59V993.121H1218.56V821.391Z" fill="#DADDDF"/>
<path d="M1189.6 821.391H1220.95V837.981H1218.56V993.121H1194.36V837.981H1189.6V821.391V821.391Z" fill="#B2B6BB"/>
<path d="M1188.83 821.391H1032.98V837.981H1188.83V821.391Z" fill="#DADDDF"/>
<path d="M1202.92 837.98H1036.59V840.11H1202.92V837.98Z" fill="#B2B6BB"/>
<path d="M412.64 1050.86C418.34 1050.86 422.96 1055.48 422.96 1061.18C422.96 1062.42 421.96 1063.42 420.72 1063.42H404.22C402.35 1063.42 400.66 1062.32 399.9 1060.61L378.35 1012.31L402.46 984.34C402.1 985.67 412.64 1050.86 412.64 1050.86Z" fill="#3F4249"/>
<path d="M293.37 1011.14H334.25L317.82 1026.94C315.44 1029.23 314.37 1032.58 315 1035.83L317.89 1050.87C323.32 1050.87 327.72 1055.27 327.72 1060.7V1061.19C327.72 1062.43 326.72 1063.43 325.48 1063.43H310.5C308.7 1063.43 307.06 1062.41 306.27 1060.8L292.22 1032.29C290.35 1028.5 289.92 1024.16 291 1020.07L293.37 1011.14Z" fill="#3F4249"/>
<path d="M271.11 978.861C262.49 976.241 246.51 967.001 239.15 957.561C238.57 956.821 238.59 955.781 239.19 955.061C239.81 954.301 240.89 954.101 241.75 954.591C306.62 991.191 373.28 947.831 373.28 947.831C374.21 942.711 377.36 938.271 381.89 935.711C391 930.571 402.12 930.551 411.24 935.661C414.41 937.441 418.18 937.791 421.61 936.571L431.73 932.991C433.51 932.361 435.4 933.551 435.61 935.431L435.93 938.401C436.9 947.321 433.81 956.201 427.51 962.591L383.99 1006.7C379.08 1011.68 376.81 1018.68 377.87 1025.59L381.75 1050.94C387.45 1050.94 392.07 1055.56 392.07 1061.26C392.07 1062.5 391.07 1063.5 389.83 1063.5H373.33C371.46 1063.5 369.77 1062.4 369.01 1060.69L347.08 1011.21H303.65L287.22 1027.01C284.84 1029.3 283.77 1032.65 284.4 1035.9L287.29 1050.94C292.72 1050.94 297.12 1055.34 297.12 1060.77C297.12 1062.28 295.9 1063.5 294.39 1063.5H279.9C278.1 1063.5 276.46 1062.48 275.67 1060.87L261.62 1032.36C259.75 1028.57 259.32 1024.23 260.4 1020.14L271.11 978.861Z" fill="#868A91"/>
<path d="M405.38 942.899C406.19 942.089 405.89 940.479 404.71 939.309C403.53 938.139 401.93 937.839 401.12 938.649C400.31 939.459 400.61 941.069 401.78 942.239C402.96 943.409 404.57 943.709 405.38 942.899Z" fill="#3F4249"/>
<path d="M280.84 1000.17C280.84 1008.91 273.75 1016 265.01 1016C263.83 1016 262.68 1015.87 261.57 1015.62L269.51 985C276.07 986.94 280.84 993 280.84 1000.17Z" fill="#3F4249"/>
<path d="M349.86 1017.49L352.7 1016.35C356.52 1014.82 360.88 1015.74 363.75 1018.68C366.15 1021.14 367.15 1024.64 366.4 1027.99L365.88 1030.33C365.47 1032.18 365.58 1034.12 366.21 1035.91L366.43 1036.53C368 1040.99 367.1 1045.94 364.06 1049.57L349.86 1017.49Z" fill="#3F4249"/>
<path d="M369.1 950.289L366.31 967.279C364.74 976.849 356.27 983.059 347.65 980.969L339.66 979.029C337.85 978.589 335.99 978.539 334.16 978.889L317.03 982.159C308.67 983.759 300.27 979.619 295.77 971.689L294.36 969.209C329.32 970.289 358.59 956.129 369.1 950.289Z" fill="#3F4249"/>
<path d="M260.54 963.059C258.91 964.279 256.9 965.009 254.71 965.009C249.7 965.009 245.57 961.229 245.02 956.359C250.2 959.079 255.39 961.279 260.54 963.059Z" fill="#3F4249"/>
<path d="M413.86 955.89C416.14 952.74 417.12 948.84 416.62 944.99L415.59 937.15C417.59 937.45 419.66 937.27 421.61 936.58L431.73 933C433.51 932.37 435.4 933.56 435.61 935.44L435.93 938.41C436.9 947.33 433.81 956.22 427.51 962.6L414.74 975.55L412.86 972.14C410.02 966.98 410.41 960.66 413.86 955.89Z" fill="#B2B6BB"/>
<path d="M375.24 950.73L367.34 970.64C365.36 975.34 367.26 981.53 371.52 984.35C376.52 987.65 383.28 987.86 389.9 981.5C398.86 972.89 395.15 953.77 390.55 946.41" fill="#3F4249"/>
<path d="M303.65 1011.22L312.33 1001.71L305.07 1017.63L303.65 1011.22Z" fill="#3F4249"/>
<path d="M425.54 935.109L431.6 932.969C433.45 932.319 435.43 933.559 435.64 935.509L436.11 939.799C435.37 939.989 434.6 940.099 433.81 940.099C430.22 940.089 427.11 938.069 425.54 935.109Z" fill="#3F4249"/>
<path d="M376 948.809L367.72 969.429C366.47 972.409 367.56 975.849 370.31 977.549C374.42 980.099 380.97 981.879 388.15 974.979C395.76 967.659 394.7 952.109 389.73 945.109" fill="#868A91"/>
<path d="M377.7 980.349C374.73 980.349 372.11 979.279 370.03 977.989C367.05 976.139 365.87 972.449 367.24 969.219L375.52 948.609C375.63 948.339 375.93 948.209 376.2 948.319C376.47 948.429 376.6 948.729 376.49 948.999L368.21 969.619C367.05 972.379 368.05 975.529 370.59 977.109C374.64 979.619 380.91 981.229 387.8 974.609C395.35 967.359 393.92 951.899 389.31 945.419C389.14 945.189 389.2 944.859 389.43 944.689C389.66 944.519 389.99 944.579 390.16 944.809C395.09 951.739 396.57 967.619 388.52 975.349C384.65 979.059 380.97 980.349 377.7 980.349Z" fill="#3F4249"/>
<path d="M347.08 1011.22C347.08 1011.22 337.83 1000.33 312.33 1001.71L307.99 1011.22H347.08Z" fill="#B2B6BB"/>
<path d="M271.74 976.18L271.11 978.86C271.11 978.86 264.54 976.8 258.76 973.23L271.74 976.18Z" fill="#3F4249"/>
<path d="M426.94 950.551C425.78 950.551 424.52 950.371 423.16 950.001C422.88 949.921 422.72 949.641 422.79 949.361C422.87 949.081 423.16 948.921 423.43 948.991C426.87 949.931 429.57 949.591 431.47 947.991C435.45 944.641 434.78 936.821 434.77 936.741C434.74 936.451 434.95 936.201 435.24 936.171C435.53 936.131 435.78 936.351 435.81 936.641C435.84 936.981 436.54 945.091 432.14 948.781C430.75 949.961 429 950.551 426.94 950.551Z" fill="#3F4249"/>
<path d="M1146.94 868.7H448.77C439.28 868.7 431.59 861.01 431.59 851.52V331.93C431.59 322.44 439.28 314.75 448.77 314.75H1146.94C1156.43 314.75 1164.12 322.44 1164.12 331.93V851.52C1164.11 861.01 1156.42 868.7 1146.94 868.7Z" class="change-color-in-svg" fill="#4D61FC" style="fill: rgb(50, 150, 250);"/>
<path opacity="0.6" d="M1146.94 868.7H448.77C439.28 868.7 431.59 861.01 431.59 851.52V331.93C431.59 322.44 439.28 314.75 448.77 314.75H1146.94C1156.43 314.75 1164.12 322.44 1164.12 331.93V851.52C1164.11 861.01 1156.42 868.7 1146.94 868.7Z" fill="white"/>
<path d="M1138.67 868.7H440.5C431.01 868.7 423.32 861.01 423.32 851.52V331.93C423.32 322.44 431.01 314.75 440.5 314.75H1138.67C1148.16 314.75 1155.85 322.44 1155.85 331.93V851.52C1155.85 861.01 1148.15 868.7 1138.67 868.7Z" fill="white"/>
<path d="M480.37 868.7H440.5C431.01 868.7 423.32 861.01 423.32 851.52V331.93C423.32 322.44 431.01 314.75 440.5 314.75H480.36V868.7H480.37Z" class="change-color-in-svg" fill="#4D61FC" style="fill: rgb(50, 150, 250);"/>
<path d="M463.67 348.021H440.02C438.17 348.021 436.66 346.521 436.66 344.661C436.66 342.811 438.16 341.301 440.02 341.301H463.67C465.52 341.301 467.03 342.801 467.03 344.661C467.03 346.521 465.52 348.021 463.67 348.021Z" fill="white"/>
<path d="M458.05 407.38H445.63C444.01 407.38 442.7 406.07 442.7 404.45V392.03C442.7 390.41 444.01 389.1 445.63 389.1H458.05C459.67 389.1 460.98 390.41 460.98 392.03V404.45C460.98 406.06 459.67 407.38 458.05 407.38Z" fill="white"/>
<path d="M458.05 466.7H445.63C444.01 466.7 442.7 465.39 442.7 463.77V451.35C442.7 449.73 444.01 448.42 445.63 448.42H458.05C459.67 448.42 460.98 449.73 460.98 451.35V463.77C460.98 465.39 459.67 466.7 458.05 466.7Z" class="change-color-in-svg" fill="#4D61FC" style="fill: rgb(50, 150, 250);"/>
<path d="M458.05 526.02H445.63C444.01 526.02 442.7 524.71 442.7 523.09V510.67C442.7 509.05 444.01 507.74 445.63 507.74H458.05C459.67 507.74 460.98 509.05 460.98 510.67V523.09C460.98 524.71 459.67 526.02 458.05 526.02Z" class="change-color-in-svg" fill="#4D61FC" style="fill: rgb(50, 150, 250);"/>
<path d="M458.05 585.34H445.63C444.01 585.34 442.7 584.03 442.7 582.41V570C442.7 568.38 444.01 567.07 445.63 567.07H458.05C459.67 567.07 460.98 568.38 460.98 570V582.42C460.98 584.03 459.67 585.34 458.05 585.34Z" class="change-color-in-svg" fill="#4D61FC" style="fill: rgb(50, 150, 250);"/>
<path opacity="0.4" d="M458.05 466.7H445.63C444.01 466.7 442.7 465.39 442.7 463.77V451.35C442.7 449.73 444.01 448.42 445.63 448.42H458.05C459.67 448.42 460.98 449.73 460.98 451.35V463.77C460.98 465.39 459.67 466.7 458.05 466.7Z" fill="white"/>
<path opacity="0.4" d="M458.05 526.02H445.63C444.01 526.02 442.7 524.71 442.7 523.09V510.67C442.7 509.05 444.01 507.74 445.63 507.74H458.05C459.67 507.74 460.98 509.05 460.98 510.67V523.09C460.98 524.71 459.67 526.02 458.05 526.02Z" fill="white"/>
<path opacity="0.4" d="M458.05 585.34H445.63C444.01 585.34 442.7 584.03 442.7 582.41V570C442.7 568.38 444.01 567.07 445.63 567.07H458.05C459.67 567.07 460.98 568.38 460.98 570V582.42C460.98 584.03 459.67 585.34 458.05 585.34Z" fill="white"/>
<path d="M571.68 350.169H502.94C499.73 350.169 497.12 347.569 497.12 344.349C497.12 341.139 499.72 338.529 502.94 338.529H571.68C574.89 338.529 577.5 341.129 577.5 344.349C577.5 347.559 574.89 350.169 571.68 350.169Z" fill="#868A91"/>
<path d="M1132.47 355.61H1071.77C1069.87 355.61 1068.33 354.07 1068.33 352.17V336.52C1068.33 334.62 1069.87 333.08 1071.77 333.08H1132.47C1134.37 333.08 1135.91 334.62 1135.91 336.52V352.17C1135.91 354.07 1134.37 355.61 1132.47 355.61Z" class="change-color-in-svg" fill="#4D61FC" style="fill: rgb(50, 150, 250);"/>
<path d="M1046.4 356.11H985.7C983.53 356.11 981.76 354.34 981.76 352.17V336.52C981.76 334.35 983.53 332.58 985.7 332.58H1046.4C1048.57 332.58 1050.34 334.35 1050.34 336.52V352.17C1050.34 354.34 1048.57 356.11 1046.4 356.11ZM985.7 333.59C984.08 333.59 982.76 334.91 982.76 336.53V352.18C982.76 353.8 984.08 355.12 985.7 355.12H1046.4C1048.02 355.12 1049.34 353.8 1049.34 352.18V336.53C1049.34 334.91 1048.02 333.59 1046.4 333.59H985.7Z" class="change-color-in-svg" fill="#4D61FC" style="fill: rgb(50, 150, 250);"/>
<path d="M451.85 842.49C443.16 842.49 436.11 835.44 436.11 826.75C436.11 818.06 443.16 811.01 451.85 811.01C460.54 811.01 467.59 818.06 467.59 826.75C467.58 835.44 460.54 842.49 451.85 842.49Z" fill="white"/>
<path d="M451.85 827.209C449.5 827.209 447.54 825.419 447.33 823.089L447.03 819.819C446.78 817.159 448.88 814.859 451.55 814.859H452.16C454.84 814.859 456.93 817.159 456.68 819.819L456.38 823.089C456.15 825.419 454.19 827.209 451.85 827.209Z" class="change-color-in-svg" fill="#4D61FC" style="fill: rgb(50, 150, 250);"/>
<path d="M465.17 835.12C464.54 836.12 463.8 837.05 462.97 837.88C460.12 840.72 456.19 842.49 451.84 842.49C446.22 842.49 441.3 839.55 438.51 835.12C439.28 831.62 442.41 829 446.14 829H457.54C461.28 829 464.4 831.62 465.17 835.12Z" class="change-color-in-svg" fill="#4D61FC" style="fill: rgb(50, 150, 250);"/>
<g opacity="0.4">
<path opacity="0.4" d="M451.85 827.209C449.5 827.209 447.54 825.419 447.33 823.089L447.03 819.819C446.78 817.159 448.88 814.859 451.55 814.859H452.16C454.84 814.859 456.93 817.159 456.68 819.819L456.38 823.089C456.15 825.419 454.19 827.209 451.85 827.209Z" fill="white"/>
<path opacity="0.4" d="M465.17 835.12C464.54 836.12 463.8 837.05 462.97 837.88C460.12 840.72 456.19 842.49 451.84 842.49C446.22 842.49 441.3 839.55 438.51 835.12C439.28 831.62 442.41 829 446.14 829H457.54C461.28 829 464.4 831.62 465.17 835.12Z" fill="white"/>
</g>
<path d="M692.11 494.59H506.1C501.14 494.59 497.11 490.57 497.11 485.6V387.22C497.11 382.26 501.13 378.23 506.1 378.23H692.11C697.07 378.23 701.1 382.25 701.1 387.22V485.6C701.1 490.56 697.08 494.59 692.11 494.59Z" class="change-color-in-svg" fill="#4D61FC" style="fill: rgb(50, 150, 250);"/>
<path opacity="0.5" d="M692.11 494.59H506.1C501.14 494.59 497.11 490.57 497.11 485.6V387.22C497.11 382.26 501.13 378.23 506.1 378.23H692.11C697.07 378.23 701.1 382.25 701.1 387.22V485.6C701.1 490.56 697.08 494.59 692.11 494.59Z" fill="white"/>
<path d="M638.82 467.211H524.13C521.65 467.211 519.64 465.201 519.64 462.721V448.711C519.64 446.231 521.65 444.221 524.13 444.221H638.82C641.3 444.221 643.31 446.231 643.31 448.711V462.721C643.31 465.201 641.3 467.211 638.82 467.211Z" fill="white"/>
<path d="M663.51 421.85H569.66C567.49 421.85 565.73 420.09 565.73 417.92C565.73 415.75 567.49 413.99 569.66 413.99H663.51C665.68 413.99 667.44 415.75 667.44 417.92C667.44 420.09 665.68 421.85 663.51 421.85Z" class="change-color-in-svg" fill="#4D61FC" style="fill: rgb(50, 150, 250);"/>
<path opacity="0.3" d="M663.51 421.85H569.66C567.49 421.85 565.73 420.09 565.73 417.92C565.73 415.75 567.49 413.99 569.66 413.99H663.51C665.68 413.99 667.44 415.75 667.44 417.92C667.44 420.09 665.68 421.85 663.51 421.85Z" fill="white"/>
<path d="M535.69 433.969C544.55 433.969 551.74 426.779 551.74 417.919C551.74 409.059 544.55 401.869 535.69 401.869C526.83 401.869 519.64 409.059 519.64 417.919C519.64 426.789 526.83 433.969 535.69 433.969Z" class="change-color-in-svg" fill="#4D61FC" style="fill: rgb(50, 150, 250);"/>
<path opacity="0.3" d="M535.69 433.969C544.55 433.969 551.74 426.779 551.74 417.919C551.74 409.059 544.55 401.869 535.69 401.869C526.83 401.869 519.64 409.059 519.64 417.919C519.64 426.789 526.83 433.969 535.69 433.969Z" fill="white"/>
<path d="M909.44 494.589H723.78C718.83 494.589 714.81 490.569 714.81 485.619V387.419C714.81 382.469 718.83 378.449 723.78 378.449H909.44C914.39 378.449 918.41 382.469 918.41 387.419V485.619C918.41 490.569 914.39 494.589 909.44 494.589Z" class="change-color-in-svg" fill="#4D61FC" style="fill: rgb(50, 150, 250);"/>
<path d="M856.24 467.26H741.77C739.29 467.26 737.29 465.25 737.29 462.78V448.8C737.29 446.32 739.3 444.32 741.77 444.32H856.24C858.72 444.32 860.72 446.33 860.72 448.8V462.78C860.73 465.25 858.72 467.26 856.24 467.26Z" fill="white"/>
<path d="M880.89 421.99H787.22C785.05 421.99 783.3 420.23 783.3 418.07C783.3 415.9 785.06 414.15 787.22 414.15H880.89C883.06 414.15 884.81 415.91 884.81 418.07C884.81 420.23 883.05 421.99 880.89 421.99Z" class="change-color-in-svg" fill="#4D61FC" style="fill: rgb(50, 150, 250);"/>
<path opacity="0.3" d="M880.89 421.99H787.22C785.05 421.99 783.3 420.23 783.3 418.07C783.3 415.9 785.06 414.15 787.22 414.15H880.89C883.06 414.15 884.81 415.91 884.81 418.07C884.81 420.23 883.05 421.99 880.89 421.99Z" fill="white"/>
<path d="M753.31 434.091C762.16 434.091 769.33 426.921 769.33 418.071C769.33 409.221 762.16 402.051 753.31 402.051C744.46 402.051 737.29 409.221 737.29 418.071C737.29 426.921 744.46 434.091 753.31 434.091Z" class="change-color-in-svg" fill="#4D61FC" style="fill: rgb(50, 150, 250);"/>
<path opacity="0.3" d="M753.31 434.091C762.16 434.091 769.33 426.921 769.33 418.071C769.33 409.221 762.16 402.051 753.31 402.051C744.46 402.051 737.29 409.221 737.29 418.071C737.29 426.921 744.46 434.091 753.31 434.091Z" fill="white"/>
<path d="M1126.94 494.589H941.28C936.33 494.589 932.31 490.569 932.31 485.619V387.419C932.31 382.469 936.33 378.449 941.28 378.449H1126.94C1131.89 378.449 1135.91 382.469 1135.91 387.419V485.619C1135.91 490.569 1131.89 494.589 1126.94 494.589Z" fill="#B2B6BB"/>
<path d="M1073.74 467.26H959.27C956.79 467.26 954.79 465.25 954.79 462.78V448.8C954.79 446.32 956.8 444.32 959.27 444.32H1073.74C1076.22 444.32 1078.22 446.33 1078.22 448.8V462.78C1078.23 465.25 1076.22 467.26 1073.74 467.26Z" fill="white"/>
<path d="M1098.39 421.99H1004.72C1002.55 421.99 1000.8 420.23 1000.8 418.07C1000.8 415.9 1002.56 414.15 1004.72 414.15H1098.39C1100.56 414.15 1102.31 415.91 1102.31 418.07C1102.31 420.23 1100.55 421.99 1098.39 421.99Z" class="change-color-in-svg" fill="#4D61FC" style="fill: rgb(50, 150, 250);"/>
<path d="M1098.39 421.99H1004.72C1002.55 421.99 1000.8 420.23 1000.8 418.07C1000.8 415.9 1002.56 414.15 1004.72 414.15H1098.39C1100.56 414.15 1102.31 415.91 1102.31 418.07C1102.31 420.23 1100.55 421.99 1098.39 421.99Z" fill="#868A91"/>
<path d="M970.81 434.091C979.66 434.091 986.83 426.921 986.83 418.071C986.83 409.221 979.66 402.051 970.81 402.051C961.96 402.051 954.79 409.221 954.79 418.071C954.79 426.921 961.96 434.091 970.81 434.091Z" fill="#868A91"/>
<path d="M1126.94 766.86H941.28C936.33 766.86 932.31 762.84 932.31 757.89V517.29C932.31 512.34 936.33 508.32 941.28 508.32H1126.94C1131.89 508.32 1135.91 512.34 1135.91 517.29V757.89C1135.91 762.85 1131.89 766.86 1126.94 766.86Z" class="change-color-in-svg" fill="#4D61FC" style="fill: rgb(50, 150, 250);"/>
<path opacity="0.85" d="M1126.94 766.86H941.28C936.33 766.86 932.31 762.84 932.31 757.89V517.29C932.31 512.34 936.33 508.32 941.28 508.32H1126.94C1131.89 508.32 1135.91 512.34 1135.91 517.29V757.89C1135.91 762.85 1131.89 766.86 1126.94 766.86Z" fill="white"/>
<path d="M1080.47 572.179L1079.55 571.189L1062.31 587.279L1063.23 588.269C1070.15 595.669 1073.96 605.319 1073.96 615.469C1073.96 637.439 1056.08 655.319 1034.11 655.319C1024.79 655.319 1015.73 652.039 1008.6 646.089L1007.56 645.219L992.48 663.329L993.521 664.199C1004.88 673.679 1019.29 678.899 1034.12 678.899C1069.1 678.899 1097.56 650.449 1097.56 615.469C1097.55 599.339 1091.48 583.959 1080.47 572.179Z" class="change-color-in-svg" fill="#4D61FC" style="fill: rgb(50, 150, 250);"/>
<path opacity="0.5" d="M1080.47 572.179L1079.55 571.189L1062.31 587.279L1063.23 588.269C1070.15 595.669 1073.96 605.319 1073.96 615.469C1073.96 637.439 1056.08 655.319 1034.11 655.319C1024.79 655.319 1015.73 652.039 1008.6 646.089L1007.56 645.219L992.48 663.329L993.521 664.199C1004.88 673.679 1019.29 678.899 1034.12 678.899C1069.1 678.899 1097.56 650.449 1097.56 615.469C1097.55 599.339 1091.48 583.959 1080.47 572.179Z" fill="white"/>
<path d="M1080.47 572.18C1072.82 563.98 1063.18 557.98 1052.52 554.76L1052.53 554.74L1051.23 554.37C1051.22 554.37 1051.21 554.369 1051.2 554.359L1049.92 554L1049.91 554.02C1044.78 552.7 1039.47 552.02 1034.1 552.02C1017.61 552.02 1001.98 558.32 990.11 569.76L989.14 570.7L1005.49 587.68L1006.46 586.74C1013.92 579.55 1023.74 575.599 1034.1 575.599C1037.74 575.599 1041.36 576.09 1044.86 577.06C1051.89 579.04 1058.24 582.91 1063.23 588.26L1064.15 589.25L1081.39 573.159L1080.47 572.18Z" class="change-color-in-svg" fill="#4D61FC" style="fill: rgb(50, 150, 250);"/>
<path d="M1008.59 646.09C999.48 638.48 994.25 627.32 994.25 615.47C994.25 604.54 998.59 594.34 1006.46 586.75L1007.43 585.81L991.08 568.83L990.11 569.77C977.57 581.83 970.66 598.06 970.66 615.46C970.66 634.34 978.98 652.1 993.5 664.19L994.54 665.06L1009.62 646.95L1008.59 646.09Z" fill="#61656D"/>
<path d="M1048.85 624.791H1019.36C1016.56 624.791 1014.29 622.521 1014.29 619.721V611.211C1014.29 608.411 1016.56 606.141 1019.36 606.141H1048.85C1051.65 606.141 1053.92 608.411 1053.92 611.211V619.721C1053.93 622.521 1051.65 624.791 1048.85 624.791Z" class="change-color-in-svg" fill="#4D61FC" style="fill: rgb(50, 150, 250);"/>
<path opacity="0.4" d="M1048.85 624.791H1019.36C1016.56 624.791 1014.29 622.521 1014.29 619.721V611.211C1014.29 608.411 1016.56 606.141 1019.36 606.141H1048.85C1051.65 606.141 1053.92 608.411 1053.92 611.211V619.721C1053.93 622.521 1051.65 624.791 1048.85 624.791Z" fill="white"/>
<path d="M647.13 848.1H508.72C506.35 848.1 504.43 846.18 504.43 843.81V784.61C504.43 782.24 506.35 780.32 508.72 780.32H647.14C649.51 780.32 651.43 782.24 651.43 784.61V843.81C651.43 846.18 649.51 848.1 647.13 848.1Z" class="change-color-in-svg" fill="#4D61FC" style="fill: rgb(50, 150, 250);"/>
<path d="M808.63 848.1H670.21C667.84 848.1 665.92 846.18 665.92 843.81V784.61C665.92 782.24 667.84 780.32 670.21 780.32H808.63C811 780.32 812.92 782.24 812.92 784.61V843.81C812.92 846.18 811 848.1 808.63 848.1Z" class="change-color-in-svg" fill="#4D61FC" style="fill: rgb(50, 150, 250);"/>
<path d="M970.12 848.1H831.7C829.33 848.1 827.41 846.18 827.41 843.81V784.61C827.41 782.24 829.33 780.32 831.7 780.32H970.12C972.49 780.32 974.41 782.24 974.41 784.61V843.81C974.41 846.18 972.49 848.1 970.12 848.1Z" class="change-color-in-svg" fill="#4D61FC" style="fill: rgb(50, 150, 250);"/>
<path d="M1131.61 848.1H993.19C990.82 848.1 988.9 846.18 988.9 843.81V784.61C988.9 782.24 990.82 780.32 993.19 780.32H1131.61C1133.98 780.32 1135.9 782.24 1135.9 784.61V843.81C1135.91 846.18 1133.98 848.1 1131.61 848.1Z" class="change-color-in-svg" fill="#4D61FC" style="fill: rgb(50, 150, 250);"/>
<g opacity="0.85">
<path opacity="0.85" d="M647.13 848.1H508.72C506.35 848.1 504.43 846.18 504.43 843.81V784.61C504.43 782.24 506.35 780.32 508.72 780.32H647.14C649.51 780.32 651.43 782.24 651.43 784.61V843.81C651.43 846.18 649.51 848.1 647.13 848.1Z" fill="white"/>
</g>
<g opacity="0.85">
<path opacity="0.85" d="M808.63 848.1H670.21C667.84 848.1 665.92 846.18 665.92 843.81V784.61C665.92 782.24 667.84 780.32 670.21 780.32H808.63C811 780.32 812.92 782.24 812.92 784.61V843.81C812.92 846.18 811 848.1 808.63 848.1Z" fill="white"/>
</g>
<g opacity="0.85">
<path opacity="0.85" d="M970.12 848.1H831.7C829.33 848.1 827.41 846.18 827.41 843.81V784.61C827.41 782.24 829.33 780.32 831.7 780.32H970.12C972.49 780.32 974.41 782.24 974.41 784.61V843.81C974.41 846.18 972.49 848.1 970.12 848.1Z" fill="white"/>
</g>
<g opacity="0.85">
<path opacity="0.85" d="M1131.61 848.1H993.19C990.82 848.1 988.9 846.18 988.9 843.81V784.61C988.9 782.24 990.82 780.32 993.19 780.32H1131.61C1133.98 780.32 1135.9 782.24 1135.9 784.61V843.81C1135.91 846.18 1133.98 848.1 1131.61 848.1Z" fill="white"/>
</g>
<path d="M909.33 766.8H508.82C503.87 766.8 499.85 762.79 499.85 757.83V517.29C499.85 512.34 503.86 508.32 508.82 508.32H909.33C914.28 508.32 918.3 512.33 918.3 517.29V757.83C918.3 762.79 914.28 766.8 909.33 766.8Z" class="change-color-in-svg" fill="#4D61FC" style="fill: rgb(50, 150, 250);"/>
<path opacity="0.85" d="M909.33 766.8H508.82C503.87 766.8 499.85 762.79 499.85 757.83V517.29C499.85 512.34 503.86 508.32 508.82 508.32H909.33C914.28 508.32 918.3 512.33 918.3 517.29V757.83C918.3 762.79 914.28 766.8 909.33 766.8Z" fill="white"/>
<path opacity="0.2" d="M918.3 695.109H500.08V696.019H918.3V695.109Z" class="change-color-in-svg" fill="#4D61FC" style="fill: rgb(50, 150, 250);"/>
<path opacity="0.2" d="M918.3 625.381H500.08V626.291H918.3V625.381Z" class="change-color-in-svg" fill="#4D61FC" style="fill: rgb(50, 150, 250);"/>
<path opacity="0.2" d="M918.3 555.641H500.08V556.551H918.3V555.641Z" class="change-color-in-svg" fill="#4D61FC" style="fill: rgb(50, 150, 250);"/>
<path opacity="0.4" d="M500.08 660.621C500.08 660.621 559.25 682.681 601.38 660.621C643.51 638.561 688.97 588.221 750.82 640.561C802.27 684.101 826.71 588.221 860.81 588.221C894.91 588.221 918.31 652.931 918.31 652.931V757.841C918.31 762.791 914.3 766.811 909.34 766.811H508.84C503.88 766.811 499.86 762.781 499.87 757.831L500.08 660.621Z" class="change-color-in-svg" fill="#4D61FC" style="fill: rgb(50, 150, 250);"/>
<path d="M556.21 671.331C549.7 671.331 542.58 670.871 534.8 669.801C514.87 667.061 499.9 661.531 499.75 661.481L500.39 659.771C500.54 659.821 515.35 665.291 535.09 668.001C553.25 670.491 579.41 671.101 600.95 659.821C608.82 655.701 616.69 650.661 625.03 645.321C660.47 622.631 700.64 596.911 751.4 639.871C761.12 648.091 770.24 651.691 779.3 650.881C796.11 649.371 809.76 632.811 822.95 616.801C835.45 601.631 847.25 587.311 860.8 587.311C895.15 587.311 918.2 649.951 919.16 652.621L917.44 653.241C917.38 653.081 911.5 636.951 901.55 621.041C885.06 594.671 870.29 589.141 860.8 589.141C848.12 589.141 836.58 603.141 824.36 617.971C810.93 634.271 797.04 651.131 779.46 652.711C769.9 653.571 760.33 649.831 750.22 641.271C728 622.461 705.96 615.421 682.85 619.741C662.43 623.551 643.92 635.401 626.02 646.871C617.65 652.231 609.74 657.291 601.81 661.451C592.49 666.301 577.68 671.331 556.21 671.331Z" class="change-color-in-svg" fill="#4D61FC" style="fill: rgb(50, 150, 250);"/>
<path d="M708.7 621.381C710.34 621.381 711.66 620.061 711.66 618.421C711.66 616.781 710.34 615.461 708.7 615.461C707.06 615.461 705.74 616.791 705.74 618.421C705.74 620.051 707.07 621.381 708.7 621.381Z" class="change-color-in-svg" fill="#4D61FC" style="fill: rgb(50, 150, 250);"/>
<path d="M778.82 654.92C780.46 654.92 781.78 653.59 781.78 651.96C781.78 650.32 780.45 649 778.82 649C777.19 649 775.86 650.33 775.86 651.96C775.86 653.59 777.19 654.92 778.82 654.92Z" class="change-color-in-svg" fill="#4D61FC" style="fill: rgb(50, 150, 250);"/>
<path d="M862.24 591.18C863.88 591.18 865.2 589.85 865.2 588.22C865.2 586.59 863.87 585.26 862.24 585.26C860.61 585.26 859.28 586.59 859.28 588.22C859.28 589.85 860.6 591.18 862.24 591.18Z" class="change-color-in-svg" fill="#4D61FC" style="fill: rgb(50, 150, 250);"/>
<path d="M639.05 641C640.69 641 642.01 639.67 642.01 638.04C642.01 636.41 640.68 635.08 639.05 635.08C637.42 635.08 636.09 636.41 636.09 638.04C636.09 639.67 637.42 641 639.05 641Z" class="change-color-in-svg" fill="#4D61FC" style="fill: rgb(50, 150, 250);"/>
<path d="M569.6 672.619C571.24 672.619 572.56 671.299 572.56 669.659C572.56 668.019 571.23 666.699 569.6 666.699C567.97 666.699 566.64 668.029 566.64 669.659C566.64 671.289 567.97 672.619 569.6 672.619Z" class="change-color-in-svg" fill="#4D61FC" style="fill: rgb(50, 150, 250);"/>
<path d="M500.08 664.01C501.72 664.01 503.04 662.68 503.04 661.05C503.04 659.42 501.71 658.09 500.08 658.09C498.45 658.09 497.12 659.41 497.12 661.05C497.12 662.69 498.45 664.01 500.08 664.01Z" class="change-color-in-svg" fill="#4D61FC" style="fill: rgb(50, 150, 250);"/>
<path d="M918.3 654.92C919.94 654.92 921.26 653.59 921.26 651.96C921.26 650.32 919.93 649 918.3 649C916.67 649 915.34 650.33 915.34 651.96C915.34 653.59 916.66 654.92 918.3 654.92Z" class="change-color-in-svg" fill="#4D61FC" style="fill: rgb(50, 150, 250);"/>
<path d="M643.27 535.04H518.33C515.12 535.04 512.51 532.44 512.51 529.22C512.51 526.01 515.11 523.4 518.33 523.4H643.26C646.47 523.4 649.08 526 649.08 529.22C649.09 532.44 646.48 535.04 643.27 535.04Z" fill="#868A91"/>
<path d="M1030.13 535.04H951.83C948.62 535.04 946.01 532.44 946.01 529.22C946.01 526.01 948.61 523.4 951.83 523.4H1030.13C1033.34 523.4 1035.95 526 1035.95 529.22C1035.95 532.44 1033.34 535.04 1030.13 535.04Z" fill="#868A91"/>
<path d="M954.2 707.719H947.69C946.01 707.719 944.64 706.359 944.64 704.669V698.159C944.64 696.479 946 695.109 947.69 695.109H954.2C955.88 695.109 957.25 696.469 957.25 698.159V704.669C957.25 706.359 955.88 707.719 954.2 707.719Z" class="change-color-in-svg" fill="#4D61FC" style="fill: rgb(50, 150, 250);"/>
<path opacity="0.5" d="M954.2 707.719H947.69C946.01 707.719 944.64 706.359 944.64 704.669V698.159C944.64 696.479 946 695.109 947.69 695.109H954.2C955.88 695.109 957.25 696.469 957.25 698.159V704.669C957.25 706.359 955.88 707.719 954.2 707.719Z" fill="white"/>
<path d="M954.2 731.149H947.69C946.01 731.149 944.64 729.789 944.64 728.099V721.589C944.64 719.909 946 718.539 947.69 718.539H954.2C955.88 718.539 957.25 719.899 957.25 721.589V728.099C957.25 729.789 955.88 731.149 954.2 731.149Z" class="change-color-in-svg" fill="#4D61FC" style="fill: rgb(50, 150, 250);"/>
<path d="M954.2 754.581H947.69C946.01 754.581 944.64 753.221 944.64 751.531V745.021C944.64 743.341 946 741.971 947.69 741.971H954.2C955.88 741.971 957.25 743.331 957.25 745.021V751.531C957.25 753.221 955.88 754.581 954.2 754.581Z" fill="#61656D"/>
<path d="M1056.89 704.479H969.3C967.61 704.479 966.24 703.109 966.24 701.419C966.24 699.729 967.61 698.359 969.3 698.359H1056.89C1058.58 698.359 1059.95 699.729 1059.95 701.419C1059.96 703.109 1058.59 704.479 1056.89 704.479Z" class="change-color-in-svg" fill="#4D61FC" style="fill: rgb(50, 150, 250);"/>
<path d="M1056.89 727.909H969.3C967.61 727.909 966.24 726.539 966.24 724.849C966.24 723.159 967.61 721.789 969.3 721.789H1056.89C1058.58 721.789 1059.95 723.159 1059.95 724.849C1059.96 726.539 1058.59 727.909 1056.89 727.909Z" class="change-color-in-svg" fill="#4D61FC" style="fill: rgb(50, 150, 250);"/>
<path d="M1056.89 751.341H969.3C967.61 751.341 966.24 749.971 966.24 748.281C966.24 746.591 967.61 745.221 969.3 745.221H1056.89C1058.58 745.221 1059.95 746.591 1059.95 748.281C1059.96 749.971 1058.59 751.341 1056.89 751.341Z" class="change-color-in-svg" fill="#4D61FC" style="fill: rgb(50, 150, 250);"/>
<path opacity="0.5" d="M1056.89 704.479H969.3C967.61 704.479 966.24 703.109 966.24 701.419C966.24 699.729 967.61 698.359 969.3 698.359H1056.89C1058.58 698.359 1059.95 699.729 1059.95 701.419C1059.96 703.109 1058.59 704.479 1056.89 704.479Z" fill="white"/>
<path opacity="0.5" d="M1056.89 727.909H969.3C967.61 727.909 966.24 726.539 966.24 724.849C966.24 723.159 967.61 721.789 969.3 721.789H1056.89C1058.58 721.789 1059.95 723.159 1059.95 724.849C1059.96 726.539 1058.59 727.909 1056.89 727.909Z" fill="white"/>
<path opacity="0.5" d="M1056.89 751.341H969.3C967.61 751.341 966.24 749.971 966.24 748.281C966.24 746.591 967.61 745.221 969.3 745.221H1056.89C1058.58 745.221 1059.95 746.591 1059.95 748.281C1059.96 749.971 1058.59 751.341 1056.89 751.341Z" fill="white"/>
<path d="M1120.52 704.479H1096.4C1094.71 704.479 1093.34 703.109 1093.34 701.419C1093.34 699.729 1094.71 698.359 1096.4 698.359H1120.52C1122.21 698.359 1123.58 699.729 1123.58 701.419C1123.58 703.109 1122.21 704.479 1120.52 704.479Z" class="change-color-in-svg" fill="#4D61FC" style="fill: rgb(50, 150, 250);"/>
<path d="M1120.52 727.909H1096.4C1094.71 727.909 1093.34 726.539 1093.34 724.849C1093.34 723.159 1094.71 721.789 1096.4 721.789H1120.52C1122.21 721.789 1123.58 723.159 1123.58 724.849C1123.58 726.539 1122.21 727.909 1120.52 727.909Z" class="change-color-in-svg" fill="#4D61FC" style="fill: rgb(50, 150, 250);"/>
<path d="M1120.52 751.341H1096.4C1094.71 751.341 1093.34 749.971 1093.34 748.281C1093.34 746.591 1094.71 745.221 1096.4 745.221H1120.52C1122.21 745.221 1123.58 746.591 1123.58 748.281C1123.58 749.971 1122.21 751.341 1120.52 751.341Z" class="change-color-in-svg" fill="#4D61FC" style="fill: rgb(50, 150, 250);"/>
<path d="M625.18 806.33H522.22C520.55 806.33 519.19 804.969 519.19 803.299C519.19 801.629 520.55 800.27 522.22 800.27H625.18C626.85 800.27 628.21 801.629 628.21 803.299C628.21 804.969 626.86 806.33 625.18 806.33Z" class="change-color-in-svg" fill="#4D61FC" style="fill: rgb(50, 150, 250);"/>
<path opacity="0.15" d="M561.62 834.58H523.49C521.12 834.58 519.2 832.66 519.2 830.29V823.22C519.2 820.85 521.12 818.93 523.49 818.93H561.62C563.99 818.93 565.91 820.85 565.91 823.22V830.29C565.91 832.66 563.99 834.58 561.62 834.58Z" fill="white"/>
<path opacity="0.5" d="M625.18 806.33H522.22C520.55 806.33 519.19 804.969 519.19 803.299C519.19 801.629 520.55 800.27 522.22 800.27H625.18C626.85 800.27 628.21 801.629 628.21 803.299C628.21 804.969 626.86 806.33 625.18 806.33Z" fill="white"/>
<path d="M790.9 806.33H687.94C686.27 806.33 684.91 804.969 684.91 803.299C684.91 801.629 686.27 800.27 687.94 800.27H790.9C792.57 800.27 793.93 801.629 793.93 803.299C793.93 804.969 792.57 806.33 790.9 806.33Z" class="change-color-in-svg" fill="#4D61FC" style="fill: rgb(50, 150, 250);"/>
<path opacity="0.15" d="M727.33 834.58H689.2C686.83 834.58 684.91 832.66 684.91 830.29V823.22C684.91 820.85 686.83 818.93 689.2 818.93H727.33C729.7 818.93 731.62 820.85 731.62 823.22V830.29C731.63 832.66 729.7 834.58 727.33 834.58Z" fill="white"/>
<path opacity="0.5" d="M790.9 806.33H687.94C686.27 806.33 684.91 804.969 684.91 803.299C684.91 801.629 686.27 800.27 687.94 800.27H790.9C792.57 800.27 793.93 801.629 793.93 803.299C793.93 804.969 792.57 806.33 790.9 806.33Z" fill="white"/>
<path d="M953.38 806.33H850.42C848.75 806.33 847.39 804.969 847.39 803.299C847.39 801.629 848.75 800.27 850.42 800.27H953.38C955.05 800.27 956.41 801.629 956.41 803.299C956.4 804.969 955.05 806.33 953.38 806.33Z" class="change-color-in-svg" fill="#4D61FC" style="fill: rgb(50, 150, 250);"/>
<path opacity="0.15" d="M889.81 834.58H851.68C849.31 834.58 847.39 832.66 847.39 830.29V823.22C847.39 820.85 849.31 818.93 851.68 818.93H889.81C892.18 818.93 894.1 820.85 894.1 823.22V830.29C894.1 832.66 892.18 834.58 889.81 834.58Z" fill="white"/>
<path opacity="0.5" d="M953.38 806.33H850.42C848.75 806.33 847.39 804.969 847.39 803.299C847.39 801.629 848.75 800.27 850.42 800.27H953.38C955.05 800.27 956.41 801.629 956.41 803.299C956.4 804.969 955.05 806.33 953.38 806.33Z" fill="white"/>
<path d="M1113.88 806.33H1010.92C1009.25 806.33 1007.89 804.969 1007.89 803.299C1007.89 801.629 1009.25 800.27 1010.92 800.27H1113.88C1115.55 800.27 1116.91 801.629 1116.91 803.299C1116.91 804.969 1115.56 806.33 1113.88 806.33Z" class="change-color-in-svg" fill="#4D61FC" style="fill: rgb(50, 150, 250);"/>
<path d="M1050.32 834.58H1012.19C1009.82 834.58 1007.9 832.66 1007.9 830.29V823.22C1007.9 820.85 1009.82 818.93 1012.19 818.93H1050.32C1052.69 818.93 1054.61 820.85 1054.61 823.22V830.29C1054.61 832.66 1052.69 834.58 1050.32 834.58Z" class="change-color-in-svg" fill="#4D61FC" style="fill: rgb(50, 150, 250);"/>
<path d="M561.62 834.58H523.49C521.12 834.58 519.2 832.66 519.2 830.29V823.22C519.2 820.85 521.12 818.93 523.49 818.93H561.62C563.99 818.93 565.91 820.85 565.91 823.22V830.29C565.91 832.66 563.99 834.58 561.62 834.58Z" class="change-color-in-svg" fill="#4D61FC" style="fill: rgb(50, 150, 250);"/>
<path d="M727.33 834.58H689.2C686.83 834.58 684.91 832.66 684.91 830.29V823.22C684.91 820.85 686.83 818.93 689.2 818.93H727.33C729.7 818.93 731.62 820.85 731.62 823.22V830.29C731.63 832.66 729.7 834.58 727.33 834.58Z" class="change-color-in-svg" fill="#4D61FC" style="fill: rgb(50, 150, 250);"/>
<path d="M889.81 834.58H851.68C849.31 834.58 847.39 832.66 847.39 830.29V823.22C847.39 820.85 849.31 818.93 851.68 818.93H889.81C892.18 818.93 894.1 820.85 894.1 823.22V830.29C894.1 832.66 892.18 834.58 889.81 834.58Z" class="change-color-in-svg" fill="#4D61FC" style="fill: rgb(50, 150, 250);"/>
<path d="M1050.32 834.58H1012.19C1009.82 834.58 1007.9 832.66 1007.9 830.29V823.22C1007.9 820.85 1009.82 818.93 1012.19 818.93H1050.32C1052.69 818.93 1054.61 820.85 1054.61 823.22V830.29C1054.61 832.66 1052.69 834.58 1050.32 834.58Z" class="change-color-in-svg" fill="#4D61FC" style="fill: rgb(50, 150, 250);"/>
<path opacity="0.15" d="M561.62 834.58H523.49C521.12 834.58 519.2 832.66 519.2 830.29V823.22C519.2 820.85 521.12 818.93 523.49 818.93H561.62C563.99 818.93 565.91 820.85 565.91 823.22V830.29C565.91 832.66 563.99 834.58 561.62 834.58Z" fill="white"/>
<path opacity="0.15" d="M727.33 834.58H689.2C686.83 834.58 684.91 832.66 684.91 830.29V823.22C684.91 820.85 686.83 818.93 689.2 818.93H727.33C729.7 818.93 731.62 820.85 731.62 823.22V830.29C731.63 832.66 729.7 834.58 727.33 834.58Z" fill="white"/>
<path opacity="0.15" d="M889.81 834.58H851.68C849.31 834.58 847.39 832.66 847.39 830.29V823.22C847.39 820.85 849.31 818.93 851.68 818.93H889.81C892.18 818.93 894.1 820.85 894.1 823.22V830.29C894.1 832.66 892.18 834.58 889.81 834.58Z" fill="white"/>
<path opacity="0.15" d="M561.62 834.58H523.49C521.12 834.58 519.2 832.66 519.2 830.29V823.22C519.2 820.85 521.12 818.93 523.49 818.93H561.62C563.99 818.93 565.91 820.85 565.91 823.22V830.29C565.91 832.66 563.99 834.58 561.62 834.58Z" fill="white"/>
<path opacity="0.15" d="M727.33 834.58H689.2C686.83 834.58 684.91 832.66 684.91 830.29V823.22C684.91 820.85 686.83 818.93 689.2 818.93H727.33C729.7 818.93 731.62 820.85 731.62 823.22V830.29C731.63 832.66 729.7 834.58 727.33 834.58Z" fill="white"/>
<path opacity="0.15" d="M889.81 834.58H851.68C849.31 834.58 847.39 832.66 847.39 830.29V823.22C847.39 820.85 849.31 818.93 851.68 818.93H889.81C892.18 818.93 894.1 820.85 894.1 823.22V830.29C894.1 832.66 892.18 834.58 889.81 834.58Z" fill="white"/>
<path opacity="0.15" d="M1050.32 834.58H1012.19C1009.82 834.58 1007.9 832.66 1007.9 830.29V823.22C1007.9 820.85 1009.82 818.93 1012.19 818.93H1050.32C1052.69 818.93 1054.61 820.85 1054.61 823.22V830.29C1054.61 832.66 1052.69 834.58 1050.32 834.58Z" fill="white"/>
<path opacity="0.5" d="M1113.88 806.33H1010.92C1009.25 806.33 1007.89 804.969 1007.89 803.299C1007.89 801.629 1009.25 800.27 1010.92 800.27H1113.88C1115.55 800.27 1116.91 801.629 1116.91 803.299C1116.91 804.969 1115.56 806.33 1113.88 806.33Z" fill="white"/>
<path d="M223.7 1064.38H1355.47C1355.69 1064.38 1355.9 1064.16 1355.9 1063.95C1355.9 1063.73 1355.68 1063.52 1355.47 1063.52H223.7C223.48 1063.52 223.27 1063.74 223.27 1063.95C223.27 1064.16 223.48 1064.38 223.7 1064.38Z" fill="#B1B5BA"/>
<path d="M806.03 241.59C806.03 220.46 790.07 203.04 769.47 200.77V200.5H764.94C742.27 200.5 723.85 218.92 723.85 241.59C723.85 264.26 742.27 282.68 764.94 282.68H769.47V282.41C790.06 280.14 806.03 262.72 806.03 241.59Z" fill="#858990"/>
<path d="M761.63 282.68C784.32 282.68 802.72 264.28 802.72 241.59C802.72 218.9 784.32 200.5 761.63 200.5C738.94 200.5 720.54 218.9 720.54 241.59C720.54 264.28 738.94 282.68 761.63 282.68Z" fill="#B1B5BA"/>
<path d="M761.63 278.149C781.82 278.149 798.19 261.779 798.19 241.589C798.19 221.399 781.82 205.029 761.63 205.029C741.44 205.029 725.07 221.399 725.07 241.589C725.07 261.779 741.44 278.149 761.63 278.149Z" fill="white"/>
<path d="M761.63 278.149C781.82 278.149 798.19 261.779 798.19 241.589C798.19 221.399 781.82 205.029 761.63 205.029C741.44 205.029 725.07 221.399 725.07 241.589C725.07 261.779 741.44 278.149 761.63 278.149Z" fill="#858990"/>
<path opacity="0.9" d="M761.63 278.149C781.82 278.149 798.19 261.779 798.19 241.589C798.19 221.399 781.82 205.029 761.63 205.029C741.44 205.029 725.07 221.399 725.07 241.589C725.07 261.779 741.44 278.149 761.63 278.149Z" fill="white"/>
<path d="M761.64 205.029C762.28 205.029 762.91 205.029 763.64 205.119C744.41 206.119 729.08 222.079 729.08 241.589C729.08 261.089 744.41 277.059 763.64 278.059C763 278.059 762.37 278.149 761.64 278.149C741.41 278.149 725.08 261.819 725.08 241.589C725.08 221.359 741.41 205.029 761.64 205.029Z" fill="#858990"/>
<path d="M761.99 244.399L749.84 220.269C749.38 219.359 749.75 218.179 750.66 217.729C751.57 217.269 752.75 217.639 753.2 218.549L763.63 239.319L777.51 232.519C778.42 232.059 779.6 232.429 780.05 233.429C780.51 234.339 780.14 235.519 779.14 235.969L761.99 244.399Z" class="change-color-in-svg" fill="#4D61FC" style="fill: rgb(50, 150, 250);"/>
<path opacity="0.5" d="M792.92 260.36C796.27 254.83 798.18 248.39 798.18 241.49C798.18 221.26 781.85 204.93 761.62 204.93C760.63 204.93 759.62 205.02 758.63 205.02L792.92 260.36Z" fill="white"/>
<path opacity="0.5" d="M753.1 206.029C751.29 206.489 749.56 207.029 747.93 207.659L785.76 268.979C787.21 267.709 788.57 266.259 789.84 264.709L753.1 206.029Z" fill="white"/>
<path d="M248.56 603.37H370.05V448.66H248.56V603.37Z" fill="white"/>
<path d="M264.76 587.811H353.85V464.221H264.76V587.811Z" fill="#DDDDDD"/>
<path d="M373.58 448.67H370.05V603.38H373.58V448.67Z" fill="#DADDDF"/>
<path d="M294.54 542.991C305.2 542.991 313.84 534.351 313.84 523.691C313.84 513.031 305.2 504.391 294.54 504.391C283.88 504.391 275.24 513.031 275.24 523.691C275.24 534.351 283.88 542.991 294.54 542.991Z" class="change-color-in-svg" fill="#4D61FC" style="fill: rgb(50, 150, 250);"/>
<path d="M342.77 574.44L322.67 542.98L302.57 574.1L342.77 574.44Z" fill="#868A91"/>
<path opacity="0.2" d="M298.96 519.41H340.7V477.67H298.96V519.41Z" fill="black"/>
<path d="M596.39 452.7C595.93 452.77 595.77 453.26 595.83 453.72C595.9 454.18 596.39 454.34 596.85 454.28L600.5 453.52C602.31 453.03 603.46 451.22 602.96 449.41C602.64 448.25 601.78 447.36 600.73 447C599.32 446.52 598.42 445.15 598.32 443.67C598.28 443.02 598.25 442.49 598.21 442.34C596.23 434.75 596.39 452.7 596.39 452.7Z" fill="#F99A9A"/>
<g opacity="0.15">
<path opacity="0.15" d="M602.96 449.411C602.71 448.491 602.12 447.751 601.36 447.301C601.4 447.401 601.43 447.501 601.46 447.601C601.95 449.411 600.8 451.211 599 451.701L596.39 452.241C596.39 452.521 596.39 452.681 596.39 452.681C595.93 452.751 595.77 453.241 595.83 453.701C595.9 454.161 596.39 454.321 596.85 454.261L600.5 453.511C602.3 453.021 603.45 451.221 602.96 449.411Z" fill="black"/>
</g>
<path d="M542.19 1046.23L488.27 1047.56L509.79 1032.19C513.36 1029.61 515.61 1025.54 515.77 1021.14L516.52 1004.27L545.85 1004.35L542.19 1046.23Z" fill="#FB9C9C"/>
<path opacity="0.15" d="M536.2 1026.54V1026.21C536.37 1024.3 535.03 1022.64 533.21 1022.39L516.01 1019.89L516.18 1016.49H544.93L542.35 1045.07L518.83 1042.49L526.56 1039.42C531.97 1037.26 535.7 1032.27 536.2 1026.54Z" fill="black"/>
<path d="M545.92 1036.67V1057.69C545.92 1061.09 543.18 1063.84 539.77 1063.84H468.32C466.91 1063.84 465.74 1062.67 465.74 1061.26C465.74 1056.28 468.98 1051.79 473.72 1050.21L489.84 1044.89L510.28 1029.02C512.36 1027.36 515.35 1027.44 517.43 1029.19L526.48 1036.92C527.81 1038.09 529.63 1038.42 531.3 1037.92L542.77 1034.35C544.42 1033.94 545.92 1035.09 545.92 1036.67Z" fill="#3F4249"/>
<path d="M539.77 1063.84H468.32C466.91 1063.84 465.74 1062.67 465.74 1061.26C465.74 1060.34 465.82 1059.51 466.07 1058.68H545.83C545.34 1061.6 542.85 1063.84 539.77 1063.84Z" fill="black"/>
<path d="M510.7 1037.42C510.87 1037.42 511.03 1037.34 511.12 1037.25C511.37 1037 511.37 1036.58 511.12 1036.33L506.8 1031.68C506.55 1031.43 506.13 1031.43 505.88 1031.68C505.63 1031.93 505.63 1032.35 505.88 1032.6L510.2 1037.25C510.37 1037.34 510.53 1037.42 510.7 1037.42Z" fill="white"/>
<path d="M507.29 1040.09C507.46 1040.09 507.62 1040.01 507.71 1039.92C507.96 1039.67 507.96 1039.25 507.71 1039L503.39 1034.35C503.14 1034.1 502.72 1034.1 502.47 1034.35C502.22 1034.6 502.22 1035.02 502.47 1035.27L506.79 1039.92C506.95 1040 507.12 1040.09 507.29 1040.09Z" fill="white"/>
<path d="M503.88 1042.74C504.05 1042.74 504.21 1042.66 504.3 1042.57C504.55 1042.32 504.55 1041.9 504.3 1041.65L499.98 1037C499.73 1036.75 499.31 1036.75 499.06 1037C498.81 1037.25 498.81 1037.67 499.06 1037.92L503.38 1042.57C503.47 1042.66 503.63 1042.74 503.88 1042.74Z" fill="white"/>
<path d="M613.32 1046.23L667.24 1047.56L645.72 1032.19C642.15 1029.61 639.9 1025.54 639.74 1021.14L638.99 1004.27L609.66 1004.35L613.32 1046.23Z" fill="#FB9C9C"/>
<path opacity="0.15" d="M619.31 1026.54V1026.21C619.14 1024.3 620.48 1022.64 622.3 1022.39L639.5 1019.89L639.33 1016.49H610.58L613.16 1045.07L636.68 1042.49L628.95 1039.42C623.54 1037.26 619.81 1032.27 619.31 1026.54Z" fill="black"/>
<path d="M641.2 680.92V1016.49H609.71L582.3 742.9C582.13 741.07 580.64 739.75 578.81 739.75C577.06 739.75 575.57 741.08 575.41 742.9L546.24 1016.49H514.75L525.65 682.83L641.2 680.92Z" class="change-color-in-svg" fill="#4D61FC" style="fill: rgb(50, 150, 250);"/>
<path d="M642.03 1016.49H608.47L607.8 1009.59H641.95L642.03 1016.49Z" class="change-color-in-svg" fill="#4D61FC" style="fill: rgb(50, 150, 250);"/>
<path opacity="0.2" d="M642.03 1016.49H608.47L607.8 1009.59H641.95L642.03 1016.49Z" fill="white"/>
<path opacity="0.2" d="M642.03 1016.49H628.09L627.75 1009.51L641.95 1009.59L642.03 1016.49Z" fill="black"/>
<path d="M609.59 1036.67V1057.69C609.59 1061.09 612.33 1063.84 615.74 1063.84H687.19C688.6 1063.84 689.77 1062.67 689.77 1061.26C689.77 1056.28 686.53 1051.79 681.79 1050.21L665.67 1044.89L645.23 1029.02C643.15 1027.36 640.16 1027.44 638.08 1029.19L629.03 1036.92C627.7 1038.09 625.88 1038.42 624.21 1037.92L612.74 1034.35C611.09 1033.94 609.59 1035.09 609.59 1036.67Z" fill="#3F4249"/>
<path d="M615.74 1063.84H687.19C688.6 1063.84 689.77 1062.67 689.77 1061.26C689.77 1060.34 689.69 1059.51 689.44 1058.68H609.68C610.17 1061.6 612.66 1063.84 615.74 1063.84Z" fill="black"/>
<path d="M644.81 1037.42C644.64 1037.42 644.48 1037.34 644.39 1037.25C644.14 1037 644.14 1036.58 644.39 1036.33L648.71 1031.68C648.96 1031.43 649.38 1031.43 649.63 1031.68C649.88 1031.93 649.88 1032.35 649.63 1032.6L645.31 1037.25C645.14 1037.34 644.98 1037.42 644.81 1037.42Z" fill="white"/>
<path d="M648.22 1040.09C648.05 1040.09 647.89 1040.01 647.8 1039.92C647.55 1039.67 647.55 1039.25 647.8 1039L652.12 1034.35C652.37 1034.1 652.79 1034.1 653.04 1034.35C653.29 1034.6 653.29 1035.02 653.04 1035.27L648.72 1039.92C648.56 1040 648.39 1040.09 648.22 1040.09Z" fill="white"/>
<path d="M651.63 1042.74C651.46 1042.74 651.3 1042.66 651.21 1042.57C650.96 1042.32 650.96 1041.9 651.21 1041.65L655.53 1037C655.78 1036.75 656.2 1036.75 656.45 1037C656.7 1037.25 656.7 1037.67 656.45 1037.92L652.13 1042.57C652.04 1042.66 651.88 1042.74 651.63 1042.74Z" fill="white"/>
<path opacity="0.2" d="M527.92 1012.73L558.53 754.37C559.53 746.07 566.58 739.83 574.9 739.83H578.8C577.05 739.83 575.56 741.16 575.4 742.98L546.4 1015.07L527.92 1012.73Z" fill="black"/>
<path opacity="0.15" d="M547.07 1016.49H527.38L528.29 1009.59H547.74L547.07 1016.49Z" fill="black"/>
<path opacity="0.2" d="M641.24 683.359L641.29 1009.42L627.75 1009.5L623.94 683.359C649.96 683.359 628.26 683.359 641.24 683.359Z" fill="black"/>
<path d="M597 428.33L600.26 466.2C600.73 471.67 597.27 476.7 592 478.23L589.62 478.92L591.61 496.33L574.74 494.06L555.33 495.59L557.48 449.46L579.02 428.83L597 428.33Z" fill="#F99A9A"/>
<path d="M598.571 417.071C599.901 422.831 602.971 426.281 597.841 429.211L595.621 430.481C593.521 431.681 592.181 433.871 592.071 436.291C591.891 440.061 590.171 442.461 586.501 443.651C586.041 443.801 585.781 444.291 585.881 444.761L586.16 446.021L587.071 450.871C587.251 451.951 586.571 452.981 585.501 453.241C584.461 453.491 583.401 452.901 583.061 451.881L581.641 448.631L575.631 454.081L572.98 471.551C572.42 475.261 569.23 478.011 565.48 478.021L556.17 478.041L549.871 468.511C543.271 458.521 538.621 449.411 538.651 438.161C538.651 438.161 548.34 432.591 551.72 431.151L551.22 425.921C550.7 420.501 550.181 422.431 555.341 420.691L565.42 417.301C575.88 413.771 584.481 413.091 595.201 415.701C600.121 416.901 598.571 417.071 598.571 417.071Z" fill="#21252B"/>
<path d="M785.78 492.199C785.78 492.199 789.09 494.529 784.44 500.489C779.79 506.449 763.03 513.329 763.03 513.329L765.86 491.289L785.78 492.199Z" fill="#F69797"/>
<path d="M750.1 497.249L752.81 490.289C754 487.229 755.74 484.409 757.95 481.979L764.41 474.849C764.85 474.199 765.73 474.029 766.39 474.449L766.43 474.469C768.23 475.639 768.97 477.909 768.21 479.919L764.18 486.139C763.97 486.459 764.05 486.879 764.35 487.109C764.63 487.319 765.01 487.299 765.27 487.069L787.12 467.399C788.03 466.589 789.43 466.699 790.2 467.629C790.88 468.459 790.85 469.659 790.12 470.449L780.91 480.399C780.91 480.399 786.15 479.999 784.27 485.659C784.27 485.659 788.7 489.069 784.04 495.029C779.39 500.989 763.02 513.339 763.02 513.339L749.84 532.459L735.88 520.369L750.1 497.249Z" fill="#F69797"/>
<g opacity="0.3">
<path opacity="0.3" d="M777.12 492.59C776.98 492.59 776.84 492.53 776.73 492.42C776.54 492.21 776.56 491.88 776.77 491.69L783.92 485.27C784.13 485.08 784.46 485.1 784.65 485.31C784.84 485.52 784.82 485.85 784.61 486.04L777.46 492.46C777.36 492.55 777.24 492.59 777.12 492.59Z" fill="black"/>
</g>
<g opacity="0.3">
<path opacity="0.3" d="M778.48 499.07C778.34 499.07 778.2 499.01 778.09 498.9C777.9 498.69 777.92 498.36 778.13 498.17L785.28 491.75C785.49 491.56 785.82 491.58 786.01 491.79C786.2 492 786.18 492.33 785.97 492.52L778.82 498.94C778.73 499.02 778.6 499.07 778.48 499.07Z" fill="black"/>
</g>
<g opacity="0.3">
<path opacity="0.3" d="M773.95 487.41C773.81 487.41 773.67 487.35 773.56 487.24C773.37 487.03 773.39 486.7 773.6 486.51L780.75 480.09C780.96 479.9 781.29 479.92 781.48 480.13C781.67 480.34 781.65 480.67 781.44 480.86L774.29 487.28C774.2 487.36 774.07 487.41 773.95 487.41Z" fill="black"/>
</g>
<path opacity="0.2" d="M784.43 500.49C779.78 506.45 763.02 513.33 763.02 513.33L758.05 520.54L755.15 518.18L760.42 510.52C760.89 509.83 761.57 509.32 762.36 509.05L769.31 506.66C775.62 504.61 782.84 501.03 786.83 495.73C786.84 495.73 786.92 496.99 784.43 500.49Z" fill="black"/>
<path d="M555.32 490.09H590.62C591.41 490.09 592.15 490.5 592.56 491.18L595.62 496.22L629.39 500.58C637.09 501.57 644.2 505.23 649.5 510.91L695.01 559.75L742.53 507.91L759.09 521.39L703.02 601.66C697.8 609.14 687.21 610.35 680.43 604.24L641.18 568.88V685.1H525.55L521.23 636.73H490.82C482.03 636.73 475.49 628.61 477.36 620.02L498.71 522.08C500.81 512.44 508.46 504.98 518.15 503.13L550.35 496.95L553.33 491.31C553.71 490.55 554.48 490.09 555.32 490.09Z" fill="#3F4249"/>
<path opacity="0.2" d="M755.15 518.189L696.03 595.249C693.06 599.509 687.36 605.479 680.33 604.159L680.42 604.239C687.2 610.339 697.79 609.129 703.01 601.659L759.08 521.389L755.15 518.189Z" fill="black"/>
<path d="M515.71 567.83L514.38 567.95L522.15 654.98L523.48 654.86L515.71 567.83Z" fill="#21252B"/>
<path opacity="0.2" d="M508.73 611.061L515.08 567.891L519.34 615.571H512.62C510.22 615.571 508.38 613.431 508.73 611.061Z" fill="black"/>
<path d="M595.51 408.471C590.9 406.821 586.79 407.571 584.15 409.551C582.56 410.951 580.61 410.761 578.8 409.301C576.05 407.011 571.59 403.351 564.75 405.271C555.79 407.641 553.44 413.791 552.64 416.981C552.41 418.411 551.37 419.411 550.21 420.001C546.3 421.911 538.85 427.641 538.62 436.961C538.14 453.361 568.99 448.841 568.99 448.841C567.48 445.481 569.18 441.561 572.61 440.261L597.84 429.211C605.98 425.601 604.7 411.901 595.51 408.471Z" fill="#21252B"/>
<path opacity="0.15" d="M575.141 452.891L575.61 454.081C575.61 454.081 578.101 454.841 580.591 455.231L574.73 458.091L575.141 452.891Z" fill="black"/>
<path d="M581.95 449.639C582.94 453.009 584.02 455.469 579.53 455.499C571.01 455.519 569.3 444.279 574.04 441.689C578.21 439.439 580 443.499 580 443.499C580 443.499 580.01 443.489 581.95 449.639Z" fill="#FC9D9D"/>
<path opacity="0.3" d="M579.46 448.321C579.23 447.141 579 446.111 578.34 445.261C577.69 444.561 577.05 444.011 576.3 443.911C575.55 443.821 574.81 444.021 573.96 444.681C573.82 444.841 573.69 445.151 573.88 445.581C574.05 445.871 574.35 445.851 574.63 445.671C575.19 445.181 575.78 444.991 576.23 445.111C576.68 445.081 577.01 445.501 577.5 446.071C578.15 446.771 578.41 448.251 578.43 448.551L578.65 449.581C578.67 449.881 578.98 450.001 579.28 449.981C579.58 449.961 579.7 449.651 579.68 449.351L579.46 448.321Z" fill="black"/>
<path d="M601.96 447.841C601.55 447.841 601.18 447.551 601.09 447.131L598.16 434.171C598.06 433.691 598.37 433.211 598.85 433.111C599.34 433.011 599.81 433.321 599.91 433.801L602.84 446.761C602.94 447.241 602.63 447.721 602.15 447.821C602.09 447.841 602.03 447.841 601.96 447.841Z" fill="#21252B"/>
<path d="M600.08 438.869L580.01 443.319L580.4 445.069L600.47 440.609L600.08 438.869Z" fill="#21252B"/>
<path d="M547.07 1016.49H513.59L514.09 1009.59H547.74L547.07 1016.49Z" class="change-color-in-svg" fill="#4D61FC" style="fill: rgb(50, 150, 250);"/>
<path opacity="0.2" d="M547.07 1016.49H513.59L514.09 1009.59H547.74L547.07 1016.49Z" fill="white"/>
<path opacity="0.2" d="M547.07 1016.49H527.46L528.29 1009.59H547.74L547.07 1016.49Z" fill="black"/>
<path d="M595.62 495.551H559.65V496.891H595.62V495.551Z" fill="#21252B"/>
<path opacity="0.2" d="M641.18 568.88L639.47 567.37C635 563.43 627.96 566.47 627.76 572.43L623.95 685.1H641.18V568.88Z" fill="black"/>
<path opacity="0.2" d="M695.01 559.739L693.27 561.629C692.41 562.569 690.9 562.459 690.19 561.409L672.69 535.779L695.01 559.739Z" fill="black"/>
<path opacity="0.15" d="M589.63 478.91L582.23 478.76C580.03 478.72 578.49 480.9 579.27 482.96L581.97 490.09H590.92L589.63 478.91Z" fill="black"/>
</svg>