<svg xmlns="http://www.w3.org/2000/svg" width="30" viewBox="0 0 73.93 104.5"><defs><style>.cls-1{fill:#060;}.cls-2{fill:#090;}.cls-3{fill:#0cf;}</style></defs><g id="Layer_2" data-name="Layer 2"><g id="Layer_2-2" data-name="Layer 2"><g id="Logo"><path class="cls-1" d="M40.62,98.93a18.83,18.83,0,0,1-6.8-1.22,20.42,20.42,0,0,1-6.53-4,22.28,22.28,0,0,1-5.37-7.31c-3.52-7.54-3.65-17.33-.38-27.58,3.55-11.08,11.37-15.92,19.65-21,9.51-5.89,19.34-12,25.55-28,.47-1.22,1.16-2.62,2.35-2.68h.12a1.09,1.09,0,0,1,.53.14C72.53,8.49,73,21.54,72.92,32.4c-.13,15.53-1.65,31.76-4.07,43.41C66.32,88.13,53.12,98.93,40.62,98.93Z"/><path d="M69.21,8a.13.13,0,0,1,.08,0c3.5.87,4,41.46-1.42,67.54C65.31,88,52.23,97.93,40.62,97.93a18,18,0,0,1-6.44-1.15A19.49,19.49,0,0,1,28,93a21.37,21.37,0,0,1-5.13-7c-3.33-7.14-3.58-16.68-.33-26.85,7.31-22.88,33.25-18.16,45.18-49,.54-1.41,1-2,1.5-2h0m0-2H69c-2,.13-2.86,2.44-3.2,3.33C59.72,25.13,50,31.12,40.67,36.91c-8.45,5.23-16.42,10.16-20.08,21.6C17.24,69,17.39,79.05,21,86.81a23.41,23.41,0,0,0,5.62,7.65,21.67,21.67,0,0,0,6.83,4.19,19.91,19.91,0,0,0,7.16,1.28c6.09,0,12.75-2.53,18.27-6.94A29.84,29.84,0,0,0,69.83,76c2.43-11.7,4-28,4.09-43.61a160.45,160.45,0,0,0-.63-17.28C72.6,8.5,71.56,6.72,70,6.2A2.25,2.25,0,0,0,69.21,6Z"/><path class="cls-2" d="M69.29,8.07C69,42.82,52.91,73.92,28,93a21.54,21.54,0,0,1-5.14-7C48.19,69.34,65.72,40.81,69.18,8.05A.09.09,0,0,1,69.29,8.07Z"/><path class="cls-3" d="M35,103.5c-18.76,0-34-14.67-34-32.69C1,59.53,9.41,49.62,17.27,44.1a1,1,0,0,1,.58-.18,1,1,0,0,1,.58.19,1,1,0,0,1,.38,1.09L17.45,50a31.64,31.64,0,0,0-1.23,8.86v1.41A12.84,12.84,0,0,0,29.07,72.45h0a14.16,14.16,0,0,0,4.42-.73,12.62,12.62,0,0,0,8.45-12.21,11.41,11.41,0,0,0-3.66-8.59L38,50.66a27.13,27.13,0,0,0-2.64-2.31l-4.47-3.8a28.06,28.06,0,0,1-10-19.68c0-.53,0-1.07,0-1.61a30.19,30.19,0,0,1,9.56-22A1,1,0,0,1,31.05,1a1.06,1.06,0,0,1,.4.08,1,1,0,0,1,.6.92v.13c0,19.18.74,27.42,19.15,38.75a37.08,37.08,0,0,1,10.11,9.2A31.93,31.93,0,0,1,69,70.81C69,88.83,53.77,103.5,35,103.5Z"/><path d="M31.05,2v.13c0,20.07,1.11,28.21,19.62,39.6a36.27,36.27,0,0,1,9.85,9A30.84,30.84,0,0,1,68,70.81c0,17.5-14.78,31.69-33,31.69S2,88.31,2,70.81C2,60.29,9.63,50.68,17.85,44.92l-1.36,4.76a33,33,0,0,0-1.27,9.15v1.4A13.87,13.87,0,0,0,29.07,73.45a15.12,15.12,0,0,0,4.74-.78A13.59,13.59,0,0,0,42.94,59.5a12.43,12.43,0,0,0-4-9.3,30.88,30.88,0,0,0-3-2.64l-4.44-3.77a27,27,0,0,1-9.7-19c0-.51,0-1,0-1.55A29,29,0,0,1,31.05,2m0-2a2,2,0,0,0-1.36.54,31.16,31.16,0,0,0-9.88,22.72c0,.55,0,1.11,0,1.66A29,29,0,0,0,30.26,45.31l4.44,3.78,0,0a29,29,0,0,1,2.56,2.24l.28.27a10.42,10.42,0,0,1,3.35,7.87,11.63,11.63,0,0,1-7.76,11.26,13.06,13.06,0,0,1-4.11.68A11.86,11.86,0,0,1,17.22,60.18V58.82a30.87,30.87,0,0,1,1.19-8.59l1.36-4.76A2,2,0,0,0,19,43.29a2.07,2.07,0,0,0-1.16-.37,2,2,0,0,0-1.15.36C8.63,48.94,0,59.14,0,70.81,0,89.39,15.71,104.5,35,104.5S70,89.39,70,70.81a33.05,33.05,0,0,0-8-21.39A38.15,38.15,0,0,0,51.72,40C34,29.09,33.05,21.75,33.05,2.13V2A2,2,0,0,0,31.85.17a1.86,1.86,0,0,0-.8-.17Z"/></g></g></g></svg>